<svg width="12" height="12" viewBox="0 0 12 12" fill="none" xmlns="http://www.w3.org/2000/svg">
<g clip-path="url(#clip0_36_846)">
<path d="M7.35156 2.8125H4.77344V3.63516C4.77344 4.34531 5.30195 4.92188 5.95293 4.92188H6.2623C6.58242 4.92188 6.5459 4.875 10.3895 3.69844C10.8922 3.53672 11.2402 3.03047 11.2402 2.46094C11.2402 1.89141 10.8922 1.38516 10.3895 1.22344C6.39766 0.0023438 6.56738 0 6.2623 0H5.95293C5.30195 0 4.77344 0.576563 4.77344 1.28672V2.10938H7.35156V2.8125Z" fill="#9AA4AD"/>
<path d="M7.99609 5.625H3.48438V8.46094H7.99609V5.625Z" fill="#9AA4AD"/>
<path d="M11.2402 5.625H8.64062V8.46094H11.2402V5.625Z" fill="#9AA4AD"/>
<path d="M2.83984 5.625H0.240234V8.46094H2.83984V5.625Z" fill="#9AA4AD"/>
<path d="M11.2402 9.16406H6.0625V12H11.2402V9.16406Z" fill="#9AA4AD"/>
<path d="M5.41797 9.16406H0.240234V12H5.41797V9.16406Z" fill="#9AA4AD"/>
<path d="M4.12891 2.8125H4.77344V2.10938H4.12891V1.75781H0.240234V3.16406H4.12891V2.8125Z" fill="#9AA4AD"/>
</g>
<defs>
<clipPath id="clip0_36_846">
<rect width="11" height="12" fill="white" transform="translate(0.240234)"/>
</clipPath>
</defs>
</svg>
