<svg width="13" height="14" viewBox="0 0 13 14" fill="none" xmlns="http://www.w3.org/2000/svg">
<path d="M8.4043 3.28125H5.35742V4.24102C5.35742 5.06953 5.98203 5.74219 6.75137 5.74219H7.11699C7.49531 5.74219 7.45215 5.6875 11.9945 4.31484C12.5887 4.12617 13 3.53555 13 2.87109C13 2.20664 12.5887 1.61602 11.9945 1.42734C7.27695 0.00273444 7.47754 0 7.11699 0H6.75137C5.98203 0 5.35742 0.672656 5.35742 1.50117V2.46094H8.4043V3.28125Z" fill="#9AA4AD"/>
<path d="M9.16602 6.5625H3.83398V9.87109H9.16602V6.5625Z" fill="#9AA4AD"/>
<path d="M13 6.5625H9.92773V9.87109H13V6.5625Z" fill="#9AA4AD"/>
<path d="M3.07227 6.5625H0V9.87109H3.07227V6.5625Z" fill="#9AA4AD"/>
<path d="M13 10.6914H6.88086V14H13V10.6914Z" fill="#9AA4AD"/>
<path d="M6.11914 10.6914H0V14H6.11914V10.6914Z" fill="#9AA4AD"/>
<path d="M4.5957 3.28125H5.35742V2.46094H4.5957V2.05078H0V3.69141H4.5957V3.28125Z" fill="#9AA4AD"/>
</svg>
