<svg width="12" height="13" viewBox="0 0 12 13" fill="none" xmlns="http://www.w3.org/2000/svg">
<path d="M2.07296 0.590706C2.43404 0.590706 2.79043 0.586019 3.15151 0.590706C3.70485 0.600081 4.10344 0.998519 4.1222 1.55164C4.14565 2.24071 4.22537 2.92039 4.43639 3.57664C4.57238 3.99383 4.50673 4.36414 4.21599 4.70633C3.9018 5.07664 3.62513 5.47039 3.34377 5.86414C3.30157 5.92508 3.29219 6.05633 3.3297 6.12664C4.04717 7.49539 5.09289 8.53602 6.45749 9.25321C6.52783 9.29071 6.65913 9.28602 6.72009 9.23914C7.13275 8.94383 7.54072 8.63914 7.93463 8.32508C8.22537 8.09071 8.54424 8.02039 8.89594 8.12821C9.60403 8.33914 10.3215 8.45633 11.0624 8.47039C11.597 8.47977 11.9956 8.90164 12.0003 9.44071C12.005 10.1579 12.005 10.8798 12.0003 11.597C11.9956 12.1876 11.5829 12.5907 10.9874 12.586C8.91939 12.572 6.98738 12.0376 5.24295 10.936C2.55596 9.23914 0.863116 6.82977 0.225367 3.71258C0.0846866 3.02352 0.0471719 2.30633 0.00965727 1.59852C-0.0325467 1.00789 0.403561 0.600081 0.994417 0.590706C1.35081 0.590706 1.71188 0.590706 2.07296 0.590706Z" fill="black"/>
</svg>
